<svg xmlns="http://www.w3.org/2000/svg" version="1.1" viewBox="0 0 2048 868">
<path transform="translate(0)" d="m0 0h2048v868h-2048z" fill="#4BAAB7"/>
<path transform="translate(1544,230)" d="m0 0h13l18 4 14 7 10 9 7 8 10 17 8 17 6 20 3 18v3h27l15 2 15 4 16 6 16 9 14 10 13 12 11 14 10 17 6 14 9 29 13 48 4 21v11l-4 24-2 6-1 4h-2l-1 8-1 4-2 5-2 1-2-1v6l-9 10-8 8-7 3-9 6-9 5-10 4-26 3-32 1h-176l-21-1-20-3-15-5-16-10-14-13-8-10-6-10-6-13-5-21v-18l4-19 9-29 17-50 9-20 7-12 10-13 13-13 13-10 13-8 15-7 15-5 18-3 18-2 8-4 10-10 7-13 1-5v-12l-2-10-4-8-5-6-10-5h-9l-8 4-5 8-1 9 2 8v4l-23 7-16 4-1-1v-26l4-14 6-11 9-9 12-7 14-4z" fill="#F1A138"/>
<path transform="translate(1571,172)" d="m0 0 5 2 1 3 3 1v2l4 1 9 8 7 8 5 3-1-5h-2l-2-4 3 1v2h2l5 5 7 6v2l4 2 5 4 9 6 12 3h8l8-1h18l13 6 7 8v2l3 1 6 9 4 8 7 10 6 9-1 2-2-1 2 6-2-1-2 4 4 13v6l4 5 3 10 9 11 8 11 9 7 3 4 6 3 2 2 5 2 4 4 12 6v2l6 2v2l5 2 1 10 3 1v10l-3-1 3 3-1 9h-2l-1-2v10l2 3 2 12 3 5 2 9 3 7 3 19 2 7 3 17 2 6v26l-2 16-2 9-3 10-4 14-4 7h-2l-2 6-10 10-1 3-2 1-2 5-7 7-4 5-2 9-4 8h-2l1 3-4 4-7 8-4 4-14 7-9 2-12 3-16 3-12 1-2 1-14 1-14 3h-9l-21 2-25 1h-38l-38 1h-9l-17-3-10-2-11-1-9-2-13-2-10-2-2-1-6-1-4-1-1-2-2 1-1-2-5-1-3-1-1-2-9-5-5-6-1-4-6-10-3-9-4-6-2-1v-4l-4-2-8-6-6-5-5-8-4-4-3-5-6-6-4-2-4-9 4-2-3-7-1-3v-7l1-3h-2v-2h-2l-1-16-3-1v-8l-3-3-1-4v-16l-4 1-2-1-2-15v-37l4-25v-8l2-11-2 3v-7l-3-1v-3l3 1v-2l-2-1 2-9 10-30 3-6 7-8 7-4h7l8 6 5 4 10 1 6-5 7-11 4-9 4-7 3-8 10-18 2-5 8-11 7-8 9-5h11l2-1 4 3v2l5 2 5 4 2 4v-5h3l5 4 2-7 1 3-3 11v26l16-4 21-6h2l-3-12 1-9 6-9 8-4h9l10 5 6 7 4 8 2 10v12l-3 9-6 10-10 10-8 4-31 4-15 4-16 7-14 8-12 9-12 11-9 10-10 15-9 19-10 28-12 36-8 28-2 11v18l5 21 9 19 8 10 9 10 10 8 13 8 15 5 20 3 21 1h187l32-2 15-2 10-4 17-10 4-3 5-2 13-13 2-4 1-5 4-1 1-7 3-9h2l1-9 2-7 3-18v-11l-5-24-13-49-11-33-9-17-10-14-10-11-11-9-15-10-16-8-17-6-14-3-10-1-27-1-5-25-7-21-12-23-8-11-9-9-12-7-12-4-11-2-13-1v-1l7-1 4-5 4 1 3 3-3-24 1-7-1-1 1-17 7-4h4z" fill="#68B6B1"/>
<path transform="translate(1659,338)" d="m0 0h8l12 5 8 5 12 4 5-1 4-2-1-2 6 2 12 7 12 9 12 11 11 14 10 17 6 14 9 29 13 48 4 21v11l-4 24-2 6-1 4h-2l-1 8-1 4-2 5-2 1-2-1v6l-9 10-8 8-7 3-9 6-9 5-10 4-26 3-32 1h-176l-21-1-20-3-15-5-5-3 2-1 16 6 16 3 15 1h39v-2l-11-1-2-1-11-1-4-1-8-1-2-4-3-1 3-1 27 3 10 5 10 3v2h93l19-2 15-5 1-3h2l2-8h2l2-4 6-9 2-5h2l2-4 5-5 3-4-7-4-4-5-21 12-12 5-18 4-10 1h-44l-19-3-15-4-16-7-13-8-10-9-8-9-11-18-6-13v-2l5 1 7 14 9 11 11 9 15 7 14 2-1-32-1-9-1-2 2-1h120l1 2-2 5-4 2-3 14-1 20h11l14-6 10-7 5-4 9-12 6-10 2-26v-21l7-8 1-2h-3v-2l-5-1-3-3v-2h-2v2h-2l-2 6-11 12-10 6-8 3h-7l-12-4-11-7-9-9-7-12-4-13v-17l5-15 10-14 7-7 6-3h2v-2l11-4 5-1-14-21-1-6 3-7z" fill="#B2A34A"/>
<path transform="translate(1544,230)" d="m0 0h13l18 4 14 7 10 9 7 8 10 17v7l-5-2-2-2v12l-5 5-4 9-2 7h-1l-1-9-3-13v-6l-2-7v-5h-2l-1-5-2-1-6-9-3-1v-2l-9-3v3l4 1v3h2l9 14 3 9 2 15-1 12-5 13-4 5h-2v2l-6 5-3 1 25 1 3 1 3 9 5 5 4 9 2 9-4 9-6 13-3 9h-2l-1 6-5 11-3 10-2 5-1 5v7l3 5-1 7-7 12-4 13-11-2-15 3-6 2-11 2h-5l2-2 9-3 6-3 9-7 8-9 6-12 3-8v-18l-5-17-6-8-9-10-14-8-13-3h-17l-13 5-11 7-7 7-4 6-5 5h-2v3h-2l-2 5-7 14-7 32-3 23-1 2-1 12v24l2 13 2 9 5 25 5 14 3 4v3h2l3 5 6 7 8 5 9 4 5 5 7 2h5l1 1 11 1 6 1 11 2-4 3h-39l-22-2-15-4-14-5-11-8-12-11-8-10-6-10-6-13-5-21v-18l4-19 9-29 17-50 9-20 7-12 10-13 13-13 13-10 13-8 15-7 15-5 18-3 18-2 8-4 10-10 7-13 1-5v-12l-2-10-4-8-5-6-10-5h-9l-8 4-5 8-1 9 2 8v4l-23 7-16 4-1-1v-26l4-14 6-11 9-9 12-7 14-4z" fill="#EFA239"/>
<path transform="translate(1687,40)" d="m0 0h126l13 4 8 6 7 8 4 11v14l-3 8-7 10-9 6-7 3-5 1h-127l-10-3-8-5-8-9-4-10-1-5v-8l2-9 7-11h2v-2l10-6z" fill="#EFA039"/>
<path transform="translate(1495,343)" d="m0 0 3 1-10 12-9 19-2 4 3 1 10-5h5v4l-12 7-10 9-4 6-5 5h-2v3h-2l-2 5-7 14-7 32-3 23-1 2-1 12v24l2 13 2 9 5 25 5 14 3 4v3h2l3 5 6 7 8 5 9 4 5 5 7 2h5l1 1 11 1 6 1 11 2-4 3h-39l-22-2-15-4-14-5-11-8-12-11-8-10-6-10-6-13-5-21v-18l4-19 9-29 17-50 9-20 7-12 10-13 13-13 13-10 13-8z" fill="#EEB643"/>
<path transform="translate(1728,514)" d="m0 0 2 1-3 10-5 10-1-4-4-2h-9l-5 2-12 19-8 10-10 10-14 8-12 5-18 4-10 1h-44l-19-3-15-4-16-7-13-8-10-9-8-9-11-18-6-13v-2l5 1 7 14 9 11 11 9 15 7 14 2-1-32-1-9-1-2 2-1h120l1 2-2 5-4 2-3 14-1 20h11l14-6 10-7 5-4 9-12 6-10 2-4z" fill="#1E3540"/>
<path transform="translate(1568,250)" d="m0 0h5l4 3v2l4 1 4 6v2l2 1 2 3v3h2l3 14 1 10 2 7 1 8 2-8 5-10 3-2v-13l8 5v-5l3 4 5 11 6 20 3 18v3h27l15 2 15 4 16 6 3 5-8 3-6-1-12-5-4-3-12-5h-8l-8 3-2 8 3 7 9 13 2 3 4 2-15 4-5 1v2l-8 4-7 7-7 10-4 8-3 10v17l4 13-2 4-4 3-6-2-4-2h-2l2 5 5 11 1 7-3 3-3 1h-28l-5-4 3-11 8-14v-5l-3-5v-7l2-9 3-7 5-13 8-20 5-10 4-10-4-14-2-5-4-2-2-2-1-8-28-1-1-2 6-2 2-3h2v-2l5-5 5-13 1-13-3-19-7-12-3-4v-2h-2v-3l-4-1z" fill="#F0A139"/>
<path transform="translate(1440,617)" d="m0 0 6 1 16 5 16 2 21 1h187l32-2 15-2 5-2 3 1-1 5 4 5 1 4-4 6-5 3-9 3-5 2-32 4-22 2h-8l-9 1-15 1h-33l-19 1h-18l-31-1-4-1h-13l-16-1-32-4-15-4-8-4-8-8v-10z" fill="#348B8D"/>
<path transform="translate(2040)" d="m0 0h8v868h-10l1-104 1-227z" fill="#C5D9D0"/>
<path transform="translate(1522,389)" d="m0 0h16l10 3 9 4 5 6 4 9 3 11v18l-6 15-7 10-8 8-7 5-6 3-8 2h-7l-11-4-9-6-5-5-5-6-5-10-3-12 1-12 4-12 9-13 10-8 12-5z" fill="#1E353F"/>
<path transform="translate(1649,389)" d="m0 0h13l13 4 10 6 9 9 8 16 1 5v14l-4 13-6 10-8 8-10 6-8 3h-7l-12-4-11-7-9-9-7-12-4-13v-17l5-15 8-11 5-3z" fill="#1E3540"/>
<path transform="translate(1756,386)" d="m0 0 4 4 10 17 6 14 9 29 13 48 4 21v11l-4 24-2 6-1 4h-2l-1 8-1 4-2 5-2 1-2-1v6l-9 10-8 8-7 3-9 6-9 5-10 4-26 3-32 1-45-1v-1l20-2 16-7 10-6 9-9 12-1 1 2 9-1 17-6 16-8 6-1-1 4 4-1 4-3h2v-2h3l1-3 4-2 5-4 2-3h2l2-6 5-8 4-11 3-9 3-16 2-10-2-9-1-10-4-14-4-16-6-19-10-33-6-14-1-4h2l-3-5z" fill="#A59556"/>
<path transform="translate(1559,335)" d="m0 0h11v5l8 4v2l4 2 4 8 1 4 1 14-2 8-2 15-5 17-3 7-3 10h-2l1 9v18l5 5-2 9-2 7-11-2-15 3-6 2-11 2h-5l2-2 9-3 6-3 9-7 8-9 6-12 3-8v-18l-5-17-6-8-9-10-14-8-9-3-3-2h2l2-4 3-5h2l2-5 9-11v-2l-6 2-7 4-2-1 9-7 16-8z" fill="#F0DB96"/>
<path transform="translate(545,301)" d="m0 0 10 1 8 4 6 9 3 12 10-1 2 1-1 4-7 4-7-1-4-3-5 1-3 9 2 11 5 10 11-1 1-2h2l5 7-1 3h-18l-5 2-2 3-15 2-9-5h-19l-1-2 8-17 2-11-7-6 1-5 7-1 3-15 4-6 7-5z" fill="#C2D7CF"/>
<path transform="translate(1434,614)" d="m0 0 5 1 2 2-1 8v10l8 8 13 5 10 2 25 3 11 1 14 1h11l6 1 37 1h13l22-1h32l9-1 17-1 22-2 32-4 14-5 5-3 3-6-3-5-2-5 3-5 8-5 2 1-9 6 1 5h5l6 5 1 6-1 3h-2v2l-6 5-13 5-11 3-25 4h-7l-16 2-21 2-23 2h-66l-12 1-9-1h-20l-14-2-16-2-26-3-10-2-12-3-11-6v-2h-2v-2h-2l-3-4-1-4v-7h2l1-3 3-3 1-5z" fill="#4AA9B7"/>
<path transform="translate(1544,230)" d="m0 0h13l18 4 14 7 10 9 7 8 10 17v7l-5-2-2-2v12l-7 7-1-14-5-15 1-2h-2l-4-7-4-4v-2l-5-2-8-5-7-3-13-2-8 2-4 4-7 6-5 5-10 8-7 2v2h-3l-1 5-1 7 4 5v3l4 2v3l3 1-23 7-3-1v-26l4-14 6-11 9-9 12-7 14-4z" fill="#EEB744"/>
<path transform="translate(306,321)" d="m0 0h11l9 3 7 6 5 10 1 7v9l-3 12-6 8-8 5-3 1h-14l-9-4-7-8-4-13v-12l3-10 6-8 6-4z" fill="#FBFDFB"/>
<path transform="translate(429,321)" d="m0 0h12l9 4 7 6 4 8 1 5v14l-3 10-6 8-7 5-3 1h-15l-9-4-6-7-4-10v-20l5-10 7-7z" fill="#FCFDFB"/>
<path transform="translate(509,437)" d="m0 0h11l9 4 7 6 4 9 1 6v11l-2 9-5 8-7 6-5 2h-16l-8-4-6-7-4-10-1-13 3-12 6-8 5-4z" fill="#FBFDFB"/>
<path transform="translate(368,321)" d="m0 0h11l10 4 5 4 5 9 1 4v19l-4 10-5 6-10 5h-15l-8-4-5-5-5-10-1-5v-14l4-11 6-7 7-4z" fill="#FCFDFC"/>
<path transform="translate(1663,375)" d="m0 0h16l14 4 11 6 9 8 9 13 4 15v16l-4 13-5 9-4 4-3-1v-2l-5-1-3-3v-2h-2l-1 2 2-9 1-4v-14l-3-10-6-11-8-8-10-6-13-4h-13l-18 4 6-7 5-4 5-1v-2l11-4z" fill="#AE6031"/>
<path transform="translate(234,322)" d="m0 0h25l10 3 5 5 1 2v9l-4 6-2 2 7 6 2 4v10l-4 6-5 4-7 2h-28z" fill="#FCFDFC"/>
<path transform="translate(1504,375)" d="m0 0h17l15 4 12 7 8 8-4 1-9-4-5-1h-16l-12 4-9 6-5 4-8 12-4 12-1 12v5l-4 1-1 2h-12l-3-3-3-8v-15l4-13 6-11 9-10 10-7 12-5z" fill="#AF6031"/>
<path transform="translate(1568,250)" d="m0 0h5l4 3v2l4 1 4 6v2l2 1 2 3v3h2l3 14 1 10 2 7 1 8 2-8 5-10 3-2v-13l8 5v-5l3 4 5 11 6 20 3 18v3l-2 1-65-1 4-2 4-4h2v-2l5-5 5-13 1-13-3-19-7-12-3-4v-2h-2v-3l-4-1z" fill="#B2A34A"/>
<path transform="translate(1016,753)" d="m0 0h7l8 3 5 6 2 5v40l-5 10-5 4-2 1h-11l-7-4-4-5-2-8v-37l4-8 7-6z" fill="#67B5B3"/>
<path transform="translate(1603,453)" d="m0 0 5 1 7 3 8-4 7 11 8 8 10 6-1 3-6-1-7 3-5 6-11 3h-14l-5 2-11 1v1l-9 1-13-1-26-3-9-2-5-1-10-4-1-3h15l14-3 11-3 8-1 7 2 3 1 1-2 4 3h28l5-3-2-10-6-11z" fill="#EDB543"/>
<path transform="translate(553,438)" d="m0 0h24l9 2 7 5 3 7v7l-3 8-7 6 2 6 9 14v4h-12l-4-5-9-16h-7v20l-1 1h-11l-1-1v-57z" fill="#FAFBFA"/>
<path transform="translate(676,438)" d="m0 0h25l10 3 5 5 2 4v12l-4 7-4 3h-2l3 7 8 14 1 4h-12l-3-3-10-18-8-1v22h-12v-58z" fill="#FBFDFC"/>
<path transform="translate(284,438)" d="m0 0h24l9 2 6 4 4 5v13l-4 7-6 4 4 8 8 13v3h-13l-12-21-8-1v22h-12z" fill="#FBFDFB"/>
<path transform="translate(1561,334)" d="m0 0h31l3 1 3 9 5 5 4 9 2 9-4 9-6 13-3 9h-2l-1 6-5 11-3 10-2 5-1 5v7l3 5-1 7-6 11-7-7v-27h2l3-14 2-4 6-21 2-16 1-3-1-13-4-11-4-3v-2l-5-1-4-3 1-5h-9z" fill="#EFB642"/>
<path transform="translate(1469,465)" d="m0 0h4l7 8 3 23v8l-3 7 2 5-5-1 9 19 10 15 1 3-3 8-5 1-8-3-7-3-6-9-9-19-4-12 2-1 14-1-4-9-1-12 1-17z" fill="#AF6031"/>
<path transform="translate(791,438)" d="m0 0h13l4 9 15 47v3h-13l-4-14h-18l-4 14h-12l1-7 16-50z" fill="#FBFDFB"/>
<path transform="translate(418,438)" d="m0 0h11l1 1 1 22 11-14 7-9h13l-2 4-14 18 1 5 9 15 9 14v3h-13l-12-20-2-4-3 1-4 5-1 17-1 1h-11z" fill="#FBFDFB"/>
<path transform="translate(1766,658)" d="m0 0 4 2-3 3-14 6 1 2-18 4-4 2-12 1-8 2 19-2 10 1h6l2 1v2l-3 2-18-1-3 1-7-1-3 2h-14l-20 2-7 2h-11l3-2 2-1-9-3v2l-4 1 4 4-9-1-1 2-6-1v-2l3-1-17-1-9 1v1h-38l-21 1-11 1-3 1v-3l5-3 2-1 28-1 18-1h24l14-1 24-2 16-2 13-1 4-2 13-1 19-3 12-3 9-1 9-3h3v-2h2v-2z" fill="#68B6B2"/>
<path transform="translate(1682,583)" d="m0 0 2 1-3 4h-2l-2 6-8 12h-2l-1 6-4 5-9 4-6 2-19 2h-85l-8-1v-2l-7-1-7-3 1-2 18 1 11 1h33l25-1 15-2 16-5 14-8 3-1v-2l6-4 8-6z" fill="#EEB642"/>
<path transform="translate(730,438)" d="m0 0h36v10h-24v14h21v8l-1 1-18 1h-1l-1 15h24l1 1v8l-1 1h-36l-1-58z" fill="#FBFDFB"/>
<path transform="translate(385,437)" d="m0 0h10l10 5 2 4-4 5-3 1-7-4-9 1-5 4-3 6-1 12 3 10 2 4 5 2h9l6-4 4 1 4 4-1 4-8 5-3 1h-15l-8-4-7-8-4-11v-14l4-11 7-8 8-4z" fill="#FBFCFB"/>
<path transform="translate(2040)" d="m0 0h8v145h-8z" fill="#E99E3C"/>
<path transform="translate(819,438)" d="m0 0h45v9l-1 1h-15v48l-1 1h-11l-1-1v-48h-16l-1-9z" fill="#F8FBF9"/>
<path transform="translate(230,438)" d="m0 0h44l1 1v9h-17v49h-12l-1-48-15-1-1-1v-8z" fill="#FCFDFC"/>
<path transform="translate(621,438)" d="m0 0h44l1 2v7l-1 1-15 1-1 48h-12l-1-48-15-1-1-1v-8z" fill="#FBFDFC"/>
<path transform="translate(1708,528)" d="m0 0h9l5 3 1 5-9 16-8 10-7 8-5 4-4 1-6-4-4-5-4 3-2-1 11-11 12-18 7-10z" fill="#AF6031"/>
<path transform="translate(370,331)" d="m0 0h7l5 3 4 5 2 6v13l-3 8-6 5-2 1h-7l-5-3-5-8-1-6v-8l3-9 4-5z" fill="#4BAAB7"/>
<path transform="translate(432,331)" d="m0 0h7l6 4 4 8 1 4v9l-3 9-5 5-3 2h-8l-7-6-3-7v-15l4-8 5-4z" fill="#4BAAB7"/>
<path transform="translate(512,447)" d="m0 0 8 1 7 8 2 7v8l-3 10-5 5-3 2h-8l-7-6-3-8v-13l3-8 6-5z" fill="#4BAAB7"/>
<path transform="translate(309,331)" d="m0 0h7l7 6 3 7v15l-3 7-5 5-3 1h-7l-5-3-4-6-1-3v-17l4-8z" fill="#4BAAB7"/>
<path transform="translate(1568,250)" d="m0 0h5l4 3v2l4 1 4 6v2l2 1 2 3v3h2l3 14 1 10 2 7 1 12-2 11-3 7h5v1h-32l4-2 4-4h2v-2l5-5 5-13 1-13-3-19-7-12-3-4v-2h-2v-3l-4-1z" fill="#C37248"/>
<path transform="translate(1776,67)" d="m0 0h6l-4 4v11l6 1 4-1 1 4-4 6-6-1-1 2h-10l-5-1-5 1-10-4-1 2-3 1-13 1-10 1-5-1-2-3v-8l9 1 3-1 4-4 3 5h5l5-5 1 4 3 1v-11l4 1v10l4 1-3 3h3 3l1-2 8-3h2v-8l2 2 1 7 4 1-2-5v-9z" fill="#C47347"/>
<path transform="translate(339,438)" d="m0 0h11l1 1v57l-1 1h-11l-1-56z" fill="#FAFCFA"/>
<path transform="translate(380,59)" d="m0 0h3l-1 5-1 3 8-1 5 5 1 10-3 6-4 3h-20l-4-4-1-2v-12l4-5h10l1-7z" fill="#F6FAF9"/>
<path transform="translate(1034,776)" d="m0 0h1v18l-1 11-4 8-6 5h-8l-5-3-4-6 1-17 2-2h5v-2l8 1-2 1 1 2 5-1 6-7z" fill="#4BAAB7"/>
<path transform="translate(1016,753)" d="m0 0h7l8 3 5 6 2 5v40l-5 10-5 4-2 1h-11l-7-4-4-5-2-8v-37l4-8 7-6zm2 4-6 3-5 6-2 8v19l2 16 4 6 5 3h8l7-6 3-7 1-11v-18l-3-12-5-5-5-2z" fill="#ECF6F4"/>
<path transform="translate(1469,465)" d="m0 0h4l7 8 3 23v8l-3 7v3l-4 1h-19v-1l14-1-4-9-1-12 1-17z" fill="#C47349"/>
<path transform="translate(1570,434)" d="m0 0 2 3v21l5 5-2 9-2 7-11-2-15 3-6 2-11 2h-5l2-2 9-3 6-3 9-7 8-9 6-12 4-13z" fill="#EDD892"/>
<path transform="translate(545,301)" d="m0 0 10 1 8 4 6 9-1 3-4-6-5-3h-7l-5 3-3 5-3 3-1 13-6 1-1-16h-5l-1 6v12l3 1-6 5-8-7 1-5 7-1 3-15 4-6 7-5z" fill="#E8F4F2"/>
<path transform="translate(1703,473)" d="m0 0h2l1 3v17l-2 26-8 13-9 11-3-1 9-16 3-12-1-21-2-12 5-5z" fill="#ECB543"/>
<path transform="translate(584,328)" d="m0 0 1 4-10 9v7l3 10-3 4h-6l-5 1-4-6-3-9-1-8 3-8 2-2 5 1 6 3 6-1 5-3z" fill="#69B7B2"/>
<path transform="translate(1592,454)" d="m0 0 4 1 6 9 4 10v5l-2 2h-22l-3-1 1-7 8-16z" fill="#1E3540"/>
<path transform="translate(1539,514)" d="m0 0h119l1 1v44h-11l-1-1 1-20 3-14 5-3 1-5-118-1z" fill="#B46537"/>
<path transform="translate(1486,611)" d="m0 0 23 2 8 2 8 4 10 3v2h8l2 1 80 1v1h-126l-21-1-20-3-15-5-5-3 2-1 16 6 16 3 15 1h39v-2l-11-1-2-1-11-1-4-1-8-1-2-4-3-1z" fill="#B08F43"/>
<path transform="translate(1592,443)" d="m0 0 4 1 6 8 8 15 2 10-3 3-5 1 1-7-5-12-5-7-5 1-6 10-4 9-1 5 3 1-6-1-3-3 3-11 11-19 5-2z" fill="#AD6032"/>
<path transform="translate(1528,514)" d="m0 0 9 1v3l1 9v32h-9l-1-1-1-28v-15z" fill="#AC5F32"/>
<path transform="translate(1513,700)" d="m0 0h20l5 2 2 3-1 7-2 2-4 1h-18l-5-3-1-1v-6z" fill="#EDA03C"/>
<path transform="translate(905,437)" d="m0 0h11l1 1-2 38-1 1h-7l-1-1-2-38z" fill="#F9FBFA"/>
<path transform="translate(876,437)" d="m0 0h11v16l-1 20-2 4h-6l-1-1-2-29v-9z" fill="#FAFCFA"/>
<path transform="translate(1e3 838)" d="m0 0h5l2 4 1 1 1-2h9l2 1 1 3 1-4h11l1 10-5 2-5-1 2-9h-2l-1 6-3 3-6 1-5-2-1-1-1 2h-9l-1-5 1-7z" fill="#C5E2E0"/>
<path transform="translate(1716,64)" d="m0 0 9 1 4 5v2h2l1-3 6-1 2 1v3l-6 1 1 7 5-1-1 4-1 1h-5l-4-5-3 4-9 1-4-3v-14z" fill="#F0F1E0"/>
<path transform="translate(1663,335)" d="m0 0h12l15 4 16 6 3 5-8 3-6-1-12-5-4-3-14-6v-2z" fill="#E7B444"/>
<path transform="translate(1585,243)" d="m0 0 6 1 5 5 5 3 7 9 8 14v7l-5-2-2-2v11l-2-2-5-12v-9l-6-10-5-7-4-3v-2z" fill="#F0A53C"/>
<path transform="translate(2039,606)" d="m0 0h1v62l-1 10h-2l-4-8-3-5-2 4h-2v2l-2-1 3-9 5-5 1-2 2 1 2-10-3-1 2-6 1-12 1-2z" fill="#69B7B2"/>
<path transform="translate(296,448)" d="m0 0h14l5 4v8l-3 4-8 2h-7l-1-1z" fill="#4BAAB7"/>
<path transform="translate(246,355)" d="m0 0h12l7 3 1 2v7l-4 4-4 1h-11l-1-1z" fill="#4BAAB7"/>
<path transform="translate(290,854)" d="m0 0h5l3 3 5-1 6 3 1 6 2 1v2h-22l-4-2h-4l-1-5 5-5h4z" fill="#67B6B2"/>
<path transform="translate(565,448)" d="m0 0h13l4 2 1 2v9l-3 3-8 2h-6l-2-2v-13z" fill="#4BAAB7"/>
<path transform="translate(688,448)" d="m0 0h13l5 5v7l-4 4-7 2h-6l-2-2v-13z" fill="#4BAAB7"/>
<path transform="translate(1770,64)" d="m0 0 4 2-4 1-1 15-5 2h-4l-1 2-3 3-5-1 3-4-3-1v-9h1v8l3-1v-15l4-1 1 1 9-1z" fill="#C97844"/>
<path transform="translate(1385,66)" d="m0 0 4 3 5 2 1 4 5-5h6l4 6-2 6-6 2-7-6-1 4-1 1h-7l-2-1v-15z" fill="#EAF4F2"/>
<path transform="translate(1476,559)" d="m0 0 7 6 7 8 10 10 3 10-1 4h-4v-2l-4-2v-2h-2l-7-11-6-12-3-7z" fill="#C47349"/>
<path transform="translate(599,551)" d="m0 0 6 1 3 5 2 1 2-5 1-1h7l3 3 1 4-2 7-3 2-7-1-6-9-5-3-3 3v5l1 1h5l3-1-1 4-7 1-5-5 1-9z" fill="#DEEBE7"/>
<path transform="translate(1422,679)" d="m0 0h15l17 1v-1l9 1 4 1 5-1 5 2h7l4 2-3 3 1 2-15-2-12-2-7-1h-10l-6-1-11 1-8-1z" fill="#68B6B2"/>
<path transform="translate(1034,760)" d="m0 0 3 4 1 3v40l-5 10-5 4-2 1h-11v-1h5v-2l-2-1 8-2 5-6 2-5 1-11v-18l-3-14z" fill="#E8F3F1"/>
<path transform="translate(884,552)" d="m0 0h9l2 3v13l-3 5-7 1-3-2v-2h9l-1-2-7-1-3-6 2-7z" fill="#E8F2F0"/>
<path transform="translate(370,599)" d="m0 0h9l2 3v13l-3 5-5 1-4-1 1-3h6l1-3-6 1-3-3-1-2v-7z" fill="#E1EEEA"/>
<path transform="translate(422,639)" d="m0 0 3 1v4l8 2 3 5-1 6-3 4h-10l-1-1v-20z" fill="#EAF4F2"/>
<path transform="translate(262,645)" d="m0 0 8 1 3 6-3 9-7 1v4h-5l-1-4 2-1-1-4v-8l1-3z" fill="#E6F1EE"/>
<path transform="translate(950,598)" d="m0 0h7l4 4 1 6-3 6-7 2-1 4-4-1 1-19z" fill="#E5F1EE"/>
<path transform="translate(247,331)" d="m0 0h10l5 3 1 1v6l-4 4-2 1h-10l-1-1v-13z" fill="#4BAAB7"/>
<path transform="translate(301,639)" d="m0 0 3 1 1 17-2 4-8 1-4-3-1-9 3-4 7-1v-5z" fill="#E7F2F0"/>
<path transform="translate(798,552)" d="m0 0h9l3 3 1 7-3 5-8 2v4l-4-1v-16z" fill="#E4F0EC"/>
<path transform="translate(812,598)" d="m0 0 7 1 4 6-2 7-4 3h-6v5h-3v-19l1-2z" fill="#ECF5F3"/>
<path transform="translate(715,598)" d="m0 0 7 1 2 3 1 6-1 12h-4l1-5h-6l-4-2-1-8 3-6z" fill="#E4F0ED"/>
<path transform="translate(783,546)" d="m0 0h4v18l-4 4h-6l-3-2-1-3v-7l4-4h6z" fill="#E7F2EF"/>
<path transform="translate(357,639)" d="m0 0 4 1-1 20-3 2-7-1-3-3v-9l4-4h6z" fill="#E0EDEA"/>
<path transform="translate(263,599)" d="m0 0h10l3 6-2 8-2 2h-6v5h-4v-19z" fill="#E3EFEC"/>
<path transform="translate(544,316)" d="m0 0h8l1 1v13l-2 4-6 1-4-1-1-4v-10z" fill="#1F3943"/>
<path transform="translate(510,645)" d="m0 0 19 1 2 2v12l-4 1-1-12-3 1-2 10h-4v-11h-4l-1 12-4-1v-14z" fill="#E5F1EE"/>
<path transform="translate(896,593)" d="m0 0h4l-1 7v11l-4 4-7-1-3-5 1-7 2-3 7-1z" fill="#E4F0ED"/>
<path transform="translate(418,545)" d="m0 0 3 3v15l-2 4-7 1-4-2-1-2v-9l3-3h7v-6z" fill="#E3EFEB"/>
<path transform="translate(328,552)" d="m0 0h9l3 6-2 8-2 2h-6v5h-4v-19z" fill="#E6F1EE"/>
<path transform="translate(997,599)" d="m0 0h19l2 2v12h-4l-1-10h-3v8l-2 3-3-1-2-11h-2l-1 3v8l-4 1v-14z" fill="#E7F2F0"/>
<path transform="translate(1534,691)" d="m0 0h6v2h-2v2l3 1v2l2 1-3 3-7-1h-20l-3 4-2 4-2-5v-4l5-3 6-3 8 1 11-2z" fill="#68B6B3"/>
<path transform="translate(603,598)" d="m0 0 7 1 3 3v7l-3 5-2 1h-6l-4-5v-7z" fill="#E9F3F1"/>
<path transform="translate(367,645)" d="m0 0h6l4 3 1 8-3 5-7 1-4-4-1-6 3-6z" fill="#E1EDEA"/>
<path transform="translate(391,645)" d="m0 0 7 1 3 4v7l-2 4-2 1h-6l-4-5v-7l2-4z" fill="#EDF6F4"/>
<path transform="translate(450,552)" d="m0 0h8l4 5-1 7-4 4h-6l-3-3-1-2v-6z" fill="#EAF4F1"/>
<path transform="translate(643,598)" d="m0 0 5 1 4 4v6l-5 6-7-1-3-6 2-8z" fill="#E8F1EE"/>
<path transform="translate(1018,757)" d="m0 0 8 1 5 5 2 5-2 3-3-1v-2h-2v-2h-10l-6 2-1 3h-3l1-5 6-7z" fill="#4BAAB7"/>
<path transform="translate(287,552)" d="m0 0h19l3 3v12h-3l-1-11-5-1-1 12h-3l-1-5v-7h-5v12h-4v-13z" fill="#DBE9E4"/>
<path transform="translate(427,552)" d="m0 0h7l4 4v6l-5 6-7-1-3-5 1-7z" fill="#E9F3F0"/>
<path transform="translate(281,599)" d="m0 0h8l3 3v9l-4 4-7-1-3-4 1-8z" fill="#E5F0ED"/>
<path transform="translate(746,599)" d="m0 0h8l3 4v7l-5 5h-5l-4-5v-7z" fill="#ECF5F3"/>
<path transform="translate(1540,346)" d="m0 0 3 1-2 5-7 8-3 5h-2l-2 5-3 4 1 2-8-1 4-6 4-5 3-6h2l1-5-2-1z" fill="#EFB642"/>
<path transform="translate(247,552)" d="m0 0h7l3 3 1 8-4 5h-6l-4-4v-8z" fill="#E8F2F0"/>
<path transform="translate(231,593)" d="m0 0h8l5 4-1 7-3 1 2 5h3l-1 4-4-1-5-6v-5l4 2v-6l-5-1-1 1 1 8-1 4v4l-4-1v-18z" fill="#EDF6F4"/>
<path transform="translate(375,552)" d="m0 0h19l3 3v12h-3l-1-12h-5l-1 12h-3l-1-12h-5v12h-4v-14z" fill="#EAF4F1"/>
<path transform="translate(480,645)" d="m0 0 7 1 2 3v11l-1 1h-9l-3-3v-7z" fill="#E1EEEA"/>
<path transform="translate(908,483)" d="m0 0 7 1 3 4v6l-4 4h-7l-3-3-1-7z" fill="#F9FBFA"/>
<path transform="translate(310,599)" d="m0 0h8l3 4v9l-5 3-6-1-2-2v-8z" fill="#EAF3F0"/>
<path transform="translate(908,552)" d="m0 0h6l4 3v10l-1 2-8 1-4-4v-8z" fill="#E1EEEA"/>
<path transform="translate(1443,710)" d="m0 0 7 1v2l4-2 4 1-2 2-3 1-2 5-8 1-5-3-5 1-3-1v2l-4 1v-3l5-3 3-3 8-1z" fill="#68B6B2"/>
<path transform="translate(539,552)" d="m0 0h18l2 3 1 11-3 2-1-1-1-11-3-1-2 11-4 1v-12l-5 1v11l-4-1-1-7 2-6z" fill="#E5F1EE"/>
<path transform="translate(879,483)" d="m0 0 6 1 4 5-1 6-4 3h-7l-3-4v-7z" fill="#FAFCFA"/>
<path transform="translate(1608,277)" d="m0 0 4 3 6 19 1 6v8l-1 3-4-1-2-13-3-12z" fill="#C37349"/>
<path transform="translate(340,63)" d="m0 0h5l1 1v20l-5 1h-6l-3-3-1-7 3-4h3v8l1 2 3 1v-7l-1-3 1-4z" fill="#F4F8F6"/>
<path transform="translate(795,599)" d="m0 0h7l3 4v10l-4 2-6-1-3-4v-7z" fill="#BAD9D7"/>
<path transform="translate(796,449)" d="m0 0 2 1 6 21v2h-14l4-16z" fill="#4CAAB7"/>
<path transform="translate(326,646)" d="m0 0h8l2 2v12l-3 2-7-1-2-1v-10z" fill="#DBE9E5"/>
<path transform="translate(251,70)" d="m0 0 5 3 1 6-3 5-6 1-5-2-1-2v-7l3-3z" fill="#EFF5F3"/>
<path transform="translate(393,599)" d="m0 0h8l2 2v12l-2 2h-7l-3-3v-7z" fill="#E6F0ED"/>
<path transform="translate(1705,380)" d="m0 0 6 2 4 6 6 7 3 7 1 9-3-1-3-7-8-11-10-8 1-3z" fill="#EFA239"/>
<path transform="translate(486,599)" d="m0 0h9l2 3 1 7-2 5h-10l-1-1z" fill="#ECF4F2"/>
<path transform="translate(1022,841)" d="m0 0h11l1 10-5 2-5-1 2-9h-2l-1 6-3 3-6 1v-3h2l1-8h3l1 3z" fill="#D8EBEA"/>
<path transform="translate(982,599)" d="m0 0h8l2 3v10l-3 3h-6l-2-1v-14z" fill="#E9F3F1"/>
<path transform="translate(523,552)" d="m0 0h7l3 5v8l-3 3-8-1-1-1 1-13z" fill="#DAE8E3"/>
<path transform="translate(345,552)" d="m0 0h8l1 4v3l-1 7-3 2-6-1-3-9z" fill="#69B4B7"/>
<path transform="translate(315,70)" d="m0 0h8l4 2 1 12-1 1h-6l1-12-2 1-1 10-4 1-1-1v-13z" fill="#F8FBF9"/>
<path transform="translate(1018,774)" d="m0 0h5l4 4-1 8-4 3-6-1-2-3v-7z" fill="#EEA13D"/>
<path transform="translate(967,599)" d="m0 0h8l1 13-1 2-8 1-2-2v-11z" fill="#E3EFEC"/>
<path transform="translate(525,593)" d="m0 0h4v5h6l4 4v11l-4 1v-12h-4l-1 12-2 1-2-1z" fill="#E6F2EF"/>
<path transform="translate(1144,70)" d="m0 0h15l2 1 1 9-1 3h-3l-1-9-3-2v9l-4 2-1-11-3 3v6l-3 1-1-2v-8z" fill="#EEF6F5"/>
<path transform="translate(1425,68)" d="m0 0 4 1 1 2-1 7 1 5-2 1-3-3v-9l-2 1-1 9-2 2-7-1-2-5v-7h3l1 10h3l1-9z" fill="#E8F3F0"/>
<path transform="translate(1302,70)" d="m0 0h7l5 5 3-5h2l-1 6-4 10-2 2-4-1 3-5-2-6-2-3h-2l-1 10-4-2v-9z" fill="#EBF4F2"/>
<path transform="translate(1779,69)" d="m0 0h8l2 6-1 7-4 2-4-1-3-3v-9z" fill="#F8F7EA"/>
<path transform="translate(1017,745)" d="m0 0 9 1 11 8 3 5v10h-2l-5-10-5-4v-2l-4-1-4-2v-2l-4-1z" fill="#66B5B2"/>
<path transform="translate(1610,701)" d="m0 0h6l4 4-1 7-3 2h-7l-3-3v-6z" fill="#F5F9F6"/>
<path transform="translate(1584,701)" d="m0 0 7 1 2 2v7l-3 3-4 1-5-2-2-4 1-5z" fill="#F6F9F7"/>
<path transform="translate(1716,64)" d="m0 0 9 1 4 5-1 4-2 1-4-6-4-2v12l1 1h6l-2 4h-6l-4-3v-14z" fill="#F8F5E4"/>
<path transform="translate(552,645)" d="m0 0h5l2 2-1 4-2-2h-3v2l6 1 1 7-5 3-6-1-1-1v-10l2-4z" fill="#AED4D4"/>
<path transform="translate(1552,182)" d="m0 0 2 4-1 6 4 9-1 6h-3l5 4-1 7-4 2-2-4 1-2h-2l1-30z" fill="#67B6B2"/>
<path transform="translate(1557,701)" d="m0 0 7 1 2 2v8l-3 2h-7l-3-3v-6z" fill="#F6F9F8"/>
<path transform="translate(1637,701)" d="m0 0 7 1 2 3v6l-4 3h-6l-3-3-1-4 3-5z" fill="#F7FAF8"/>
<path transform="translate(1761,68)" d="m0 0 6 2 1 2v10l-1 1h-9l-1-5 1-9z" fill="#F6F6E8"/>
<path transform="translate(197,63)" d="m0 0h6l-1 22h-6v-21z" fill="#F5F8F6"/>
<path transform="translate(183,63)" d="m0 0h7v20l-2 2h-5z" fill="#F8FBFA"/>
<path transform="translate(1702,449)" d="m0 0 7 4 3-1h5l1 1v5l-5 5-3-1v-2l-5-1-3-3v-2h-2l-1 2 1-5h2z" fill="#C37248"/>
<path transform="translate(233,645)" d="m0 0 6 1 3 2v6l-8 1 1-4h2v-2h-3l-1 2v6h8l-1 4-6 1-5-3-1-7 3-6z" fill="#EBF3F0"/>
<path transform="translate(662,599)" d="m0 0h4v11l4 1 1-12 4 1v12l-5 3-7-1-2-4v-10z" fill="#E4F0EC"/>
<path transform="translate(1541,70)" d="m0 0h6l3 3 1 5-4 5-3 1-5-3-1-7z" fill="#F0F8F6"/>
<path transform="translate(1131,70)" d="m0 0h7l2 3v7l-2 3h-7l-3-4 1-7z" fill="#E9F4F1"/>
<path transform="translate(492,646)" d="m0 0h4v11l4 1 1-12 4 1v12l-4 3-7-1-3-6v-7z" fill="#E8F2F0"/>
<path transform="translate(406,645)" d="m0 0 9 1 3 2v13l-4-1v-12l-5 2-1 11-4-1v-10z" fill="#E2EFEB"/>
<path transform="translate(859,598)" d="m0 0 5 1 3 4v5h-7l2-6h-3v9l5-1 2-1-1 5-7 1-4-4v-8z" fill="#E5EFEC"/>
<path transform="translate(441,599)" d="m0 0h7l3 3v5l-8 1 1-3 2-1v-2h-3l-1 8 3 1 5-1-1 4h-9l-3-5 1-7z" fill="#E4F0EC"/>
<path transform="translate(1802,528)" d="m0 0h1v12l-3 17-5 13-3 6h-2l3-12h2l1-9 2-7 3-18z" fill="#3E8E8B"/>
<path transform="translate(1290,70)" d="m0 0h5l3 3 1 6-5 5-6-2-1-2v-7z" fill="#E8F3F1"/>
<path transform="translate(225,63)" d="m0 0 5 1 1 5v15l-5 1-1-1-1-20z" fill="#E8F1ED"/>
<path transform="translate(530,317)" d="m0 0 4 1v13l-1 4-7-1v-10l2-6z" fill="#284B52"/>
<path transform="translate(234,63)" d="m0 0h5l1 1v20l-1 1h-5z" fill="#F0F6F4"/>
<path transform="translate(279,645)" d="m0 0 7 1 2 3v4l-7 2 1-4h2v-3l-4 2-1 6 1 1h7l-1 4h-9l-2-3v-7l2-5z" fill="#E0ECE8"/>
<path transform="translate(209,71)" d="m0 0h9l2 3v8l-3 3-3-1v-11l-2-1 1 10v2l-4 1-2-1 1-6h2v-2h-2z" fill="#F4F8F6"/>
<path transform="translate(873,598)" d="m0 0 7 1 3 4 1 7-1 4h-5l1-2v-7l-1-3-4 1v10l-4 1-1-9 2-6z" fill="#E6F2EF"/>
<path transform="translate(1684,561)" d="m0 0 2 1v2h2v2l8-1 2 4-4 5-4 1-6-4-4-7z" fill="#C47349"/>
<path transform="translate(728,599)" d="m0 0h3l1 11 4 2v-13l4 1v13l-4 2-7-1-2-4v-9z" fill="#E5F1EE"/>
<path transform="translate(723,552)" d="m0 0 4 1 1 11h5v-12l3 1 1 2v10l-2 2-6 1-5-3-2-4z" fill="#E4F0ED"/>
<path transform="translate(920,599)" d="m0 0h9l2 6-1 8-6 2-4-1-1-6h2l2 3 4-2v-7h-3l-1 3h4l-1 3-6-1-1-6z" fill="#E0EDE9"/>
<path transform="translate(866,552)" d="m0 0h10l2 5v8l-1 2h-3v-12h-4l-1 12-4-1v-13z" fill="#E9F3F1"/>
<path transform="translate(903,599)" d="m0 0h4l-1 12h6l-1-12 4 1v12l-1 2-8 1-3-2-1-4v-9z" fill="#E7F2EF"/>
<path transform="translate(827,599)" d="m0 0h8l2 3v6l-6-1 2-6-4 2v8l5-1 2-1-1 5-6 1-3-1-2-4 1-8z" fill="#E3EFEC"/>
<path transform="translate(1602,70)" d="m0 0h6l2 4v8l-1 1h-8l-1-1v-8z" fill="#ACD4D5"/>
<path transform="translate(1228,65)" d="m0 0h7l3 3v3l-4-1-1-2h-3l-2 5 1 5 5 1 4-3-2 6-5 2-5-3-2-3v-8z" fill="#F7FAF9"/>
<path transform="translate(577,645)" d="m0 0h5l4 5-1 5-2-1-2-5-3-1-1 9h8l-1 4-7 1-4-4-1-6 4-6z" fill="#E7F2EF"/>
<path transform="translate(244,645)" d="m0 0 4 1 1 2h2l1-2h4l-2 4-1 4 4 7-2 1-4-3v-2h-2l-2 4-3 1v-4l2-3-1-5z" fill="#E7F2F0"/>
<path transform="translate(1167,70)" d="m0 0 6 1 1 1v8l-2 3h-6l-3-5 2-7z" fill="#BFD6D4"/>
<path transform="translate(297,72)" d="m0 0h12l-1 4h-2v8h-7l-2-3-1-8z" fill="#C68546"/>
<path transform="translate(1591,70)" d="m0 0 5 1 1 1v9l-1 2h-6l-3-2-1-6z" fill="#EAF5F3"/>
<path transform="translate(562,599)" d="m0 0h7l2 3v5l-7 1 2-4h2l-1-2h-3l-1 8 4 1 4-1-2 4-5 1-5-3-1-7z" fill="#E1EDEA"/>
<path transform="translate(1276,70)" d="m0 0h7l1 2v14l-4 2-5-1 1-3 3 1 2-12-4 1v8l-3-1-2-3 1-5z" fill="#EAF4F2"/>
<path transform="translate(352,599)" d="m0 0 4 1v10l4 1 1-4v-8h3l1 5v7l-2 3-7 1-4-4-1-4v-7z" fill="#E6F1ED"/>
<path transform="translate(759,552)" d="m0 0h8l2 2v13h-11l-1-5 6-5h2v4l-5 1 1 2 5-1-1-8h-5l-1 4h-1z" fill="#E6F0ED"/>
<path transform="translate(1547,383)" d="m0 0 7 1 7 7 2 4-1 6-6-5-7-8-3-2z" fill="#EFF2E7"/>
<path transform="translate(513,599)" d="m0 0h8l3 5-2 2-2-3h-5l-1 1v7l6-1 3-2-1 5-3 2-7-1-3-6 1-6z" fill="#E4F0EC"/>
<path transform="translate(358,552)" d="m0 0h4v11l5 1v-12l4 1v13l-5 2-6-1-2-4z" fill="#E9F3F0"/>
<path transform="translate(762,599)" d="m0 0h9l1 1 1 9-3 5h-8l-1-1v-5l4 3 3-1 1-2v-6h-4l-1 2 5 1-1 3-6-1-1-6z" fill="#E4F0EC"/>
<path transform="translate(1373,66)" d="m0 0 5 1 5 15-5-1-2-3 1-6h-4l1 7-5 4-1-4 4-10z" fill="#EDF6F4"/>
<path transform="translate(1521,64)" d="m0 0 3 1v7l3-2h3l-2 5-1 3 3 1v4l-4-1v-2l-7 1 1-16z" fill="#ECF5F2"/>
<path transform="translate(845,552)" d="m0 0h8l3 3v3l-4-2-4-1-2 5 1 4 5-1 3-1-1 5-2 1h-6l-4-4v-8z" fill="#ECF5F2"/>
<path transform="translate(525,324)" d="m0 0h1l1 12 3 1-6 5-8-7 1-5 7-1z" fill="#EBF5F3"/>
<path transform="translate(1747,68)" d="m0 0 6 1 2 4 1 9h-4l-1-8-4-2v11l-4-1v-11z" fill="#EDEBD3"/>
<path transform="translate(438,646)" d="m0 0h4v10l1 2h4l-1-12h4v14l-1 1h-9l-2-2z" fill="#EBF5F3"/>
<path transform="translate(579,598)" d="m0 0 6 1 2 3v3l-3-1v-2h-6v8l3 1 6-3-1 5-3 2-7-1-3-5 1-6z" fill="#E5F0ED"/>
<path transform="translate(629,552)" d="m0 0h8l3 4v11l-4-1v-8l-1-3h-4v12l-4-1v-11z" fill="#E7F2EF"/>
<path transform="translate(1243,70)" d="m0 0 5 1 2 3v8l-1 1h-7l-2-2 2-10z" fill="#9FCED0"/>
<path transform="translate(661,552)" d="m0 0h7l2 2v6l-6 2 2-7-3-1-1 9 5 1 3-1-1 4-6 1-5-5 1-8z" fill="#DFECE8"/>
<path transform="translate(564,368)" d="m0 0h9l9 1v1l-14 3-17 4h-9l3-2 12-2 4-4z" fill="#68B6B2"/>
<path transform="translate(625,599)" d="m0 0h8l1 1 1 11-2 3h-9l-1-3 2-2 2 2 4-1 1-6-1-2h-3l-1 2 4 1-2 4-6-4z" fill="#E7F1EE"/>
<path transform="translate(690,599)" d="m0 0h8l2 3v11l-3 2h-6l-4-4v-4h3l2 4h3l2-9-8 1z" fill="#EFF6F4"/>
<path transform="translate(250,599)" d="m0 0h6l4 5-1 3h-2l-3-5-3 1-1 5 2 3 5-1 2-1-1 5-6 1-4-2-2-3v-6l2-4z" fill="#E5F1EE"/>
<path transform="translate(317,864)" d="m0 0h22l6 3v1h-32v-2z" fill="#69B7B2"/>
<path transform="translate(456,646)" d="m0 0h9l1 2v10l-2 3h-9l-1-6h2l3 3 4-4 1-5h-5v5l-4-1v-6z" fill="#E8F2EE"/>
<path transform="translate(274,552)" d="m0 0 7 1 2 2v5l-3-1-3-4-3 3v6l9-1-1 4-7 1-5-5v-6z" fill="#E5EFEC"/>
<path transform="translate(702,552)" d="m0 0h6l3 3v5l-4 1v-3l-1-3-3-1-1 10h6l2-1-1 4h-8l-3-4v-7z" fill="#E5F0ED"/>
<path transform="translate(599,551)" d="m0 0 6 1 2 3-1 3-5-3-3 3v5l1 1h5l3-1-1 4-7 1-5-5 1-9z" fill="#F0F7F5"/>
<path transform="translate(679,551)" d="m0 0 6 2 2 5-4-2-4-1-2 3 1 6 6-1 3-2-2 6-7 1-5-5 1-8z" fill="#E6F1EE"/>
<path transform="translate(822,552)" d="m0 0h8l3 8-1 5-3 3h-6l-3-3v-4h2l2 3h4l2-4v-5l-6 1-2 4h-1v-6z" fill="#E0EDEA"/>
<path transform="translate(1230,67)" d="m0 0 4 1 4 5-2 5-2 2-5-1-2-3 1-6z" fill="#49A7B3"/>
<path transform="translate(566,552)" d="m0 0 7 1 3 3-2 4-5-5-2 1-1 7 1 1h7l-1 3-6 1-5-5v-6l2-4z" fill="#E1EEEA"/>
<path transform="translate(285,71)" d="m0 0 7 1-2 8 1 4h-6l-2-2-1-10z" fill="#B67847"/>
<path transform="translate(848,554)" d="m0 0 5 2 4 2 1 4-2 3v-3l-6 3-4-1-1-4 2-5z" fill="#4AA5AE"/>
<path transform="translate(1600,191)" d="m0 0 3 1v2h2l5 5 7 6 2 6-2 2-7-7-5-4-1-7h-2z" fill="#5CB1B4"/>
<path transform="translate(229,547)" d="m0 0 4 1v16l9 1v2l-2 1h-7l-4-1z" fill="#EBF4F2"/>
<path transform="translate(1565,65)" d="m0 0h13v2l-4 1v14h-4l-1-14-4-2z" fill="#EAF4F2"/>
<path transform="translate(1036,838)" d="m0 0h6l1 1v12l-1 1h-5v-2h2v-7l-2 6-2 1v-11z" fill="#EBF5F3"/>
<path transform="translate(1480,65)" d="m0 0h13v2l-4 1v13l-4 1v-14l-5-1z" fill="#EEF7F6"/>
<path transform="translate(1409,682)" d="m0 0h6v1h-5l-1 3-6 3-4-1-6 2-1 2-5-2v-3l8-2 10-1z" fill="#69B7B2"/>
<path transform="translate(590,640)" d="m0 0h7l3 3v5l-5 8-3-1 1-5 3-7-5 2h-3l1-4z" fill="#E8F2EF"/>
<path transform="translate(376,599)" d="m0 0 4 1 1 2v13l-3 5-5 1-4-1 1-3h6l1-5v-7l-1-3-3-2z" fill="#EAF4F2"/>
<path transform="translate(346,592)" d="m0 0 4 1-4 9v11l-4 1-1-16 3-5z" fill="#E6F0ED"/>
<path transform="translate(1718,67)" d="m0 0 5 2 2 2v6l-4 4-4-2v-10z" fill="#B96A34"/>
<path transform="translate(550,595)" d="m0 0 4 1 1 4-1 2v7l2 5-3 1-3-3-1-6v-10z" fill="#E6F1EE"/>
<path transform="translate(315,642)" d="m0 0 4 1 1 1v5l-1 1 1 7 2 4h-5l-2-2-1-15z" fill="#E7F2F0"/>
<path transform="translate(521,354)" d="m0 0h1l1 9-1 6h-2v2h-6l-1-2z" fill="#E9F4F1"/>
<path transform="translate(1e3 838)" d="m0 0h5l2 4-2 1-4-1v9l3-2 1-5 2 4v4h-9l-1-5 1-7z" fill="#E6F1EE"/>
<path transform="translate(841,593)" d="m0 0h4l-1 20-4 1v-20z" fill="#DBE9E4"/>
<path transform="translate(935,548)" d="m0 0 4 1 1 6-1 4 1 5 2 1v3l-6-1-1-4z" fill="#E3EFEC"/>
<path transform="translate(1016,753)" d="m0 0h7l8 3 3 3v2l-4 2v-2l-4-2-11-2v-3z" fill="#F2F7F4"/>
<path transform="translate(480,645)" d="m0 0 7 1 2 3v11l-1 1h-9v-2l8-2 1-3-6 1 3-7-6 1z" fill="#EBF4F1"/>
<path transform="translate(277,554)" d="m0 0 6 6 1-4 1 8-2 1v-2l-4 2-5-1-1-6z" fill="#49A4AE"/>
<path transform="translate(564,642)" d="m0 0 5 1v14l1 4-2 1-3-2-2-17z" fill="#E5F0ED"/>
<path transform="translate(424,598)" d="m0 0 4 4v7h2l2-9 4-1-1 6-3 8-5-1-4-13z" fill="#EDF5F2"/>
<path transform="translate(1265,70)" d="m0 0 5 1 1 6-2 6-4-1 2-1v-7l-1-1-1 8h-4l-1-5 3-5z" fill="#EDF6F4"/>
<path transform="translate(678,595)" d="m0 0 5 1v6l-1 3 2 6v4l-4-1-2-6z" fill="#F1F6F4"/>
<path transform="translate(301,593)" d="m0 0h5l-1 21h-3l-1-5z" fill="#E0EDE9"/>
<path transform="translate(504,549)" d="m0 0 5 1 1 4-1 1-1 9 3 1-1 2-5-1-1-4z" fill="#E4EFEC"/>
<path transform="translate(1510,70)" d="m0 0h6l3 5-8-2v7h7l-1 3h-7l-3-3v-7z" fill="#E8F3F0"/>
<path transform="translate(590,595)" d="m0 0 4 1 1 5v8l2 5-3 1-3-2-1-8z" fill="#E8F2EF"/>
<path transform="translate(1028,779)" d="m0 0 3 3 3-2-1 5-6 7-5 1v-4l3-3z" fill="#6EB8B3"/>
<path transform="translate(920,546)" d="m0 0h4l1 8v12l-4 1z" fill="#C5D9D0"/>
<path transform="translate(1013,754)" d="m0 0 2 1 3 3-6 3-4 5-2 8h-1l-2-9 4-6z" fill="#E4F0ED"/>
<path transform="translate(375,552)" d="m0 0h19v1l-9 1-3-1v2h-4v12h-4v-14z" fill="#DFECE8"/>
<path transform="translate(269,70)" d="m0 0 5 1 3 6v5l-4 2-4-8-1-5z" fill="#F4F8F6"/>
<path transform="translate(688,601)" d="m0 0 2 1 5-1 2 1v7l-2 3-4-1-1-4h-2z" fill="#83BDBD"/>
<path transform="translate(468,596)" d="m0 0h5l1 5-2 10 3 1-1 2-5-1z" fill="#EAF3F1"/>
<path transform="translate(896,593)" d="m0 0h4l-1 7v11l-2 3-4-1 2-3v-8l-4-2 4-2z" fill="#EEF6F4"/>
<path transform="translate(691,548)" d="m0 0 3 1v12l2 6h-4l-2-4-1-14z" fill="#E7F2EF"/>
<path transform="translate(1770,66)" d="m0 0 5 1v12l1 5-5-1-2-16z" fill="#F7F2DC"/>
<path transform="translate(326,595)" d="m0 0 4 1-1 11 2 7-5-1-2-16z" fill="#E2EEEB"/>
<path transform="translate(715,549)" d="m0 0h5l-1 12v3h2v3l-5-1-2-13z" fill="#E4F0ED"/>
<path transform="translate(370,646)" d="m0 0h5l3 5-1 7-4 4h-5v-2l5-3v-7l-4-3z" fill="#E8F2EF"/>
<path transform="translate(380,640)" d="m0 0 4 1v21l-3-1-1-15z" fill="#E1EDEA"/>
<path transform="translate(283,602)" d="m0 0h5l3 5v3l-3 2-6-1-1-5z" fill="#6CADB2"/>
<path transform="translate(260,70)" d="m0 0 6 1 2 7-1 6-4-1-3-8z" fill="#F6FAF8"/>
<path transform="translate(911,554)" d="m0 0 3 1 1 5h2l-1 4-7 1-1-1v-7z" fill="#61AEB1"/>
<path transform="translate(453,554)" d="m0 0 5 2 1 5-1 3-6 1-2-2 1-7z" fill="#4DABB7"/>
<path transform="translate(858,546)" d="m0 0 4 1v19l-4 1z" fill="#C7DAD2"/>
<path transform="translate(1740,71)" d="m0 0 2 2 1 5-3 3h-2l-4-1-1-7z" fill="#EFE9C8"/>
<path transform="translate(847,593)" d="m0 0 4 1v18l-1 2h-3l-1-14z" fill="#D9E8E3"/>
<path transform="translate(312,601)" d="m0 0 5 1 1 1v8l-5 1-3-4z" fill="#69B0B3"/>
<path transform="translate(453,593)" d="m0 0 5 1-1 20-4-1z" fill="#E9F3F1"/>
<path transform="translate(578,549)" d="m0 0 5 1v13l2 4-3 1-2-1-2-13z" fill="#DDEBE6"/>
<path transform="translate(796,600)" d="m0 0h5l-5 5v5l5 1h3v3l-7 1-5-5v-7z" fill="#E8F2F0"/>
<path transform="translate(294,593)" d="m0 0h4v21l-4-1z" fill="#D1E2DB"/>
<path transform="translate(778,555)" d="m0 0h5l1 1-1 8-5 1-3-5z" fill="#4BA6AE"/>
<path transform="translate(440,546)" d="m0 0h4v21h-3z" fill="#CDDFD7"/>
<path transform="translate(428,555)" d="m0 0h5l2 6-3 4-5-1-1-5z" fill="#4DAAB6"/>
<path transform="translate(332,554)" d="m0 0 4 2 1 7-2 2h-5l-1-9z" fill="#4BAAB7"/>
<path transform="translate(813,601)" d="m0 0 4 1 2 3-1 6-5 1-2-2v-6z" fill="#50ABB5"/>
<path transform="translate(655,593)" d="m0 0h3l1 21h-3l-1-1z" fill="#D4E4DE"/>
<path transform="translate(741,552)" d="m0 0h6v3h-3v12h-4v-13z" fill="#E4F0ED"/>
<path transform="translate(233,645)" d="m0 0 6 1 3 2v6l-8 1 1-4h2v-2h-3l-2 2h-3l2-5z" fill="#E2EEEA"/>
<path transform="translate(409,553)" d="m0 0m-1 1 2 2 1 7 5 1 4-2-1 5-7 1-4-2-1-2v-9z" fill="#EAF3F0"/>
<path transform="translate(1656,372)" d="m0 0 7 1 4 2-15 4-5 1v2l-4-1 5-2v-2h3v-2z" fill="#EBB242"/>
<path transform="translate(296,648)" d="m0 0h4l1 2v7l-1 1h-5l-2-3 1-5z" fill="#50AAB3"/>
<path transform="translate(408,595)" d="m0 0 4 1v12l2 6-2 1-3-2-2-16z" fill="#E7F1EE"/>
<path transform="translate(886,555)" d="m0 0h5l1 7-2 3-5-1-1-7z" fill="#4BAAB7"/>
<path transform="translate(892,601)" d="m0 0 4 1v8l-2 2-4-1-1-1v-6z" fill="#4DA9B4"/>
<path transform="translate(750,601)" d="m0 0 3 1 1 7-3 3-4-1-1-6z" fill="#4EABB7"/>
<path transform="translate(385,593)" d="m0 0h3v20l-3 1-1-2v-18z" fill="#DCEAE5"/>
<path transform="translate(800,555)" d="m0 0h6l1 2v7l-6 1-1-1z" fill="#4CA9B4"/>
<path transform="translate(249,555)" d="m0 0 5 1 1 7-2 2-5-1-1-7z" fill="#4DA9B4"/>
<path transform="translate(1613,68)" d="m0 0 5 1v14l-4-1-2-9z" fill="#F2F7F5"/>
<path transform="translate(1017,842)" d="m0 0h3l1 3 1-3h2l-1 7-3 3-6 1v-3h2z" fill="#E8F3F1"/>
<path transform="translate(240,600)" d="m0 0 3 2-1 3h-2l2 5h3l-1 4-4-1-5-6v-5l4 2z" fill="#DFECE8"/>
<path transform="translate(644,601)" d="m0 0 4 2v7l-5 2-3-3 2-7z" fill="#4EABB6"/>
<path transform="translate(957,599)" d="m0 0 3 1 2 4-1 7-4 4-5 1 2-4 3-3-1-8z" fill="#E5F1EE"/>
<path transform="translate(928,547)" d="m0 0 3 1 1 18-4 2z" fill="#C5D9D0"/>
<path transform="translate(1513,297)" d="m0 0h7l-2 1-1 2-6 1-1 2-7 1-2 1-3-2 8-4z" fill="#56AFB5"/>
<path transform="translate(1425,68)" d="m0 0 4 1 1 2-1 7 1 5-2 1-3-3v-9h-2v-3z" fill="#EAF1EE"/>
<path transform="translate(542,640)" d="m0 0h3l-1 7 1 14h-4v-20z" fill="#DDEBE6"/>
<path transform="translate(308,644)" d="m0 0 3 2v15h-4v-15z" fill="#C5D9D0"/>
<path transform="translate(671,599)" d="m0 0 4 1v12l-2 2h-5v-2l2-1z" fill="#E1EDE9"/>
<path transform="translate(603,602)" d="m0 0h6v8l-2 2-4-1-1-1v-7z" fill="#4BAAB7"/>
<path transform="translate(374,601)" d="m0 0 3 1 1 8-1 1h-6l-1-6z" fill="#4BA9B6"/>
<path transform="translate(1013,599)" d="m0 0 4 1 1 1v12h-4l-1-10-3-2z" fill="#EBF4F2"/>
<path transform="translate(614,555)" d="m0 0h5l1 1v8l-5 1-2-2v-6z" fill="#4CA8B3"/>
<path transform="translate(412,555)" d="m0 0h5v9l-5 1-2-2v-6z" fill="#4CAAB7"/>
<path transform="translate(551,552)" d="m0 0h6l2 3 1 11-3 2-1-1-1-11-4-1-4-2z" fill="#E0EDEA"/>
<path transform="translate(836,546)" d="m0 0 3 1 1 19-2 2-2-2z" fill="#C8DBD3"/>
<path transform="translate(1112,66)" d="m0 0 4 1 1 5 3 2h-4l-1 8h-3z" fill="#EEF6F4"/>
<path transform="translate(426,648)" d="m0 0 5 1 1 7-2 2-5-1-1-3z" fill="#4FABB5"/>
<path transform="translate(392,649)" d="m0 0h5l1 2v6l-1 1h-5l-2-3 1-5z" fill="#4BAAB7"/>
<path transform="translate(357,639)" d="m0 0 4 1-1 20-4 1 1-7-1-8h2z" fill="#EFF7F6"/>
<path transform="translate(383,79)" d="m0 0h4l-1 4-2 1h-12l-2-1v-3z" fill="#4EABB7"/>
<path transform="translate(323,854)" d="m0 0 10 1 1 3-4 2h-3l-1 2h-4l-1-4z" fill="#69B7B2"/>
<path transform="translate(646,552)" d="m0 0h6l2 2-1 4-2-2-4-1v2l4 1v3l-3 1-5-4 2-5z" fill="#CEE3DE"/>
<path transform="translate(523,552)" d="m0 0h7l3 5v8l-2 2-2-1v-8l-1-3h-3l-2 2-1-4z" fill="#E9F3F1"/>
<path transform="translate(263,552)" d="m0 0h5l-2 4-1 5v6l-4-1v-11z" fill="#DFECE8"/>
<path transform="translate(334,71)" d="m0 0h3v14l-4-1-2-5 1-6z" fill="#F6FAF8"/>
<path transform="translate(953,601)" d="m0 0 4 1 1 7-4 4-3-1 1-9z" fill="#4DAAB5"/>
<path transform="translate(267,601)" d="m0 0 4 1 1 1v7l-2 2-4-1-1-7z" fill="#4CA9B4"/>
<path transform="translate(746,599)" d="m0 0h2v2l2 1-3 3 1 6 4 2v2h-5l-4-5v-7z" fill="#E7F2EF"/>
<path transform="translate(441,599)" d="m0 0h7l3 3v5l-8 1 1-3 2-1v-2l-6 1-2 1 2-4z" fill="#DCEAE5"/>
<path transform="translate(814,546)" d="m0 0 3 1v20l-3 1-1-2v-10z" fill="#DCEAE6"/>
<path transform="translate(783,548)" d="m0 0h1v5l-1 2-6 2-1 4 2 5-3 1-2-4v-7l4-4h6z" fill="#DCEAE6"/>
<path transform="translate(497,547)" d="m0 0h3v21l-3-1z" fill="#DBEAE5"/>
<path transform="translate(368,649)" d="m0 0h5l1 1v7l-1 1h-5l-1-1v-7z" fill="#4BA9B5"/>
<path transform="translate(492,646)" d="m0 0h4v11l2 1v2l-4 1-3-6v-7z" fill="#E5F0ED"/>
<path transform="translate(542,593)" d="m0 0 3 1v20h-3z" fill="#DEEBE7"/>
<path transform="translate(812,598)" d="m0 0 7 1 4 6-2 7-4 2-2-1v-2h3v-6l-3-5z" fill="#E5F0ED"/>
<path transform="translate(785,598)" d="m0 0 5 1-1 3-2 1-1 11-3-1v-13z" fill="#EBF4F1"/>
<path transform="translate(703,554)" d="m0 0 4 1 1 4 1 1-1 5-6-1v-8z" fill="#49A4AB"/>
<path transform="translate(733,552)" d="m0 0 3 1 1 2v10l-2 2-6 1-2-2 6-2z" fill="#E7F2EF"/>
<path transform="translate(287,553)" d="m0 0h7l-4 1v13h-4v-13z" fill="#DFEDE9"/>
<path transform="translate(228,67)" d="m0 0 2 4v14l-5-1 2-15z" fill="#F0F9F8"/>
<path transform="translate(1253,68)" d="m0 0h5v15l-4-1z" fill="#EEF7F5"/>
<path transform="translate(264,648)" d="m0 0 4 2 1 1v5l-3 3h-3l-1-9z" fill="#4CA9B3"/>
<path transform="translate(393,599)" d="m0 0h8l2 2v12l-2 1-4-2 3-2-1-8h-6z" fill="#E9F4F1"/>
<path transform="translate(845,594)" d="m0 0h2v20h-3v-19z" fill="#4FA8AF"/>
<path transform="translate(920,599)" d="m0 0h9v4l-5-1-1 3h4l-1 3-6-1-1-6z" fill="#E3EFEB"/>
<path transform="translate(502,599)" d="m0 0h6l-1 3h-2l-1 12h-3v-14z" fill="#EEF6F4"/>
<path transform="translate(1591,70)" d="m0 0 5 1 1 1v9l-1 2-4-1 1-1v-8l-5 1-1 3 1-5z" fill="#F0F9F8"/>
<path transform="translate(717,601)" d="m0 0 3 1v9l-4 1-2-1v-7z" fill="#4BAAB7"/>
<path transform="translate(245,71)" d="m0 0h6l-3 4-2 6-1 2h-2l-1-2v-7z" fill="#F7FAF8"/>
<path transform="translate(1123,66)" d="m0 0 3 1v15h-3l-1-6v-9z" fill="#EFF8F7"/>
<path transform="translate(277,651)" d="m0 0h1l2 6h7l-1 4h-9l-2-3v-6z" fill="#ECF4F1"/>
<path transform="translate(326,646)" d="m0 0h8l2 2v12h-2l-1-2-1-9h-6z" fill="#F1F8F6"/>
<path transform="translate(911,599)" d="m0 0 4 1v12l-1 2h-6l2-3h2z" fill="#E8F3F0"/>
<path transform="translate(234,596)" d="m0 0 5 1 1 5-1 2h-3l-3 1-1-7z" fill="#4FABB6"/>
<path transform="translate(615,552)" d="m0 0h5l3 3 1 4-2 7-2 1-5-1 4-2v-8l-4-2z" fill="#E7F2EF"/>
<path transform="translate(466,552)" d="m0 0h6l-1 3h-3v12h-3v-14z" fill="#EBF5F3"/>
<path transform="translate(1385,66)" d="m0 0 4 4-2 12h-3v-15z" fill="#ECF5F4"/>
<path transform="translate(969,601)" d="m0 0 4 1v9l-4 1-3-5z" fill="#65ADAE"/>
<path transform="translate(830,601)" d="m0 0h3l-1 5 4 2-4 4-4-1v-8z" fill="#47A1A9"/>
<path transform="translate(461,599)" d="m0 0h3v15h-3l-1-5v-9z" fill="#E6F1EE"/>
<path transform="translate(790,547)" d="m0 0h3v20h-3z" fill="#E2EEEB"/>
<path transform="translate(352,649)" d="m0 0h5v9h-6v-8z" fill="#4DAAB7"/>
<path transform="translate(942,594)" d="m0 0h3v20h-3z" fill="#EAF4F2"/>
<path transform="translate(1719,393)" d="m0 0 3 4 2 5 1 9-3-1-3-7-2-3 1-3z" fill="#ECB543"/>
<path transform="translate(1494,70)" d="m0 0h6l-2 4-1 8h-4v-10z" fill="#EFF8F7"/>
<path transform="translate(854,603)" d="m0 0h1l1 5 2-1 1 4 5-1 2-1-1 5-7 1-4-4z" fill="#EAF3F0"/>
<path transform="translate(395,601)" d="m0 0 5 1 1 8-2 2-4-1-1-3 4-1 1-3-3 1-1 2h-2l1-5z" fill="#4EA6AB"/>
<path transform="translate(301,553)" d="m0 0h7l1 2v12h-3l-1-11-5-1z" fill="#E7F1EE"/>
<path transform="translate(235,75)" d="m0 0 5 1v8l-1 1h-5z" fill="#F7FAF9"/>
<path transform="translate(1243,70)" d="m0 0 5 1 2 3v8l-5 1 1-11h-3z" fill="#EEF7F5"/>
<path transform="translate(1580,70)" d="m0 0h5l-3 13h-3v-12z" fill="#EAF4F2"/>
<path transform="translate(234,648)" d="m0 0 4 1-1 3-2-1-1 4 7-1-2 4h-6l-1-1v-6z" fill="#4DA6AD"/>
<path transform="translate(243,648)" d="m0 0h2l2 3-1 5-4 5-2-6z" fill="#52ADB6"/>
<path transform="translate(535,343)" d="m0 0 4 1 1 1-1 8h-4l-1-2v-7z" fill="#223C45"/>
<path transform="translate(210,72)" d="m0 0h2l1 10v2l-4 1-2-1 1-6h2v-2h-2v-3z" fill="#EEF4F1"/>
<path transform="translate(893,561)" d="m0 0h1v10l-5 3-6-1-1-3h9l1-8z" fill="#EDF4F1"/>
<path transform="translate(1554,70)" d="m0 0 5 1v2l-3 2v7h-4v-10z" fill="#EFF6F4"/>
<path transform="translate(1144,70)" d="m0 0h8l-3 2-3 3v6l-3 1-1-2v-8z" fill="#DBE9E4"/>
<path transform="translate(329,648)" d="m0 0 4 1v8l-4 2-2-2v-3l4-1 1-2-6 2 1-4z" fill="#50A9AF"/>
<path transform="translate(525,554)" d="m0 0 4 1 1 9-1 1h-5l-1-3 5-1v-3l-4 1z" fill="#48A2A9"/>
<path transform="translate(1462,440)" d="m0 0 10 5 6 1v2h-12l-3-3z" fill="#C47349"/>
<path transform="translate(1276,70)" d="m0 0h7l-2 3-4 1v8l-3-1-2-3 1-5z" fill="#E6F2EF"/>
<path transform="translate(1018,769)" d="m0 0 2 1v3l3 1-7 2h-5l1-5z" fill="#4FABB8"/>
<path transform="translate(845,552)" d="m0 0h8l3 3v3l-4-2-4-1-2 5-2-3-2 1 2-5z" fill="#E5EFEB"/>
<path transform="translate(390,553)" d="m0 0h6l1 2v12h-3l-1-10z" fill="#F2F8F6"/>
<path transform="translate(1751,74)" d="m0 0h1v8l12 1-4 1-1 2-3 3-5-1 3-4-3-1z" fill="#EDA949"/>
<path transform="translate(1604,71)" d="m0 0h5l1 3v8l-5 1v-10z" fill="#F4FAF9"/>
<path transform="translate(1418,674)" d="m0 0h10l9 2 2 2-19-1-3-2z" fill="#69B7B2"/>
<path transform="translate(247,605)" d="m0 0h2l3 6 5-1 2-1-1 5-6 1-4-2-1-2z" fill="#EFF6F3"/>
<path transform="translate(564,557)" d="m0 0h1l2 7h7l-1 3-6 1-5-5v-5z" fill="#F1F7F5"/>
<path transform="translate(663,554)" d="m0 0 4 1-2 6h3l-1 4-5-1-1-3z" fill="#459EA2"/>
<path transform="translate(482,648)" d="m0 0h3l-1 5 1 1h3l-1 4h-6l-1-4z" fill="#49A4AB"/>
<path transform="translate(594,557)" d="m0 0 3 3 2 4h5l3-1-1 4-7 1-5-5z" fill="#E9F1EE"/>
<path transform="translate(358,552)" d="m0 0h4v11l1 3h-4l-1-3z" fill="#E5F1EE"/>
<path transform="translate(1e3 842)" d="m0 0 6 1 1 4-5 4h-2l-1-6z" fill="#AAD2D0"/>
<path transform="translate(859,601)" d="m0 0 4 1-3 6h4v3l-5 1-1-1v-9z" fill="#4AA2A7"/>
<path transform="translate(628,601)" d="m0 0 4 1 1 5-3 5-4-1-1-4 4 1 1-3-3-1z" fill="#469FA5"/>
<path transform="translate(907,556)" d="m0 0h1l1 8 5 1v3l-7-1-2-3v-6z" fill="#F0F6F4"/>
<path transform="translate(652,560)" d="m0 0 3 1-2 6-5 1-5-2v-4l4 2 4 1z" fill="#E9F2EF"/>
<path transform="translate(352,558)" d="m0 0 2 1-1 7-3 2-6-1-1-5h2v2h5z" fill="#E8F2EE"/>
<path transform="translate(762,554)" d="m0 0 4 1 1 8-2 2-5-1v-2l5-1v-4l-5 1v-3z" fill="#489EA1"/>
<path transform="translate(492,561)" d="m0 0h2l-1 5-4 2-6-1-2-3 2-2 2 2h6z" fill="#E7F2EF"/>
<path transform="translate(1372,69)" d="m0 0 1 2 3 1h-3l1 7-5 4-1-4z" fill="#E7F2F0"/>
<path transform="translate(302,72)" d="m0 0h7l-1 4h-2v6l-3-1z" fill="#A7A687"/>
<path transform="translate(1829,47)" d="m0 0 4 2 8 9v2l-4-2-5-4v-3h-2z" fill="#C17549"/>
<path transform="translate(552,645)" d="m0 0h5l2 2-1 4-2-2-4 1-1 3h-2l-1-3 2-4z" fill="#E3EFEB"/>
<path transform="translate(443,601)" d="m0 0 4 1-1 3-3 3h6l-1 3-5 1-2-3 1-7z" fill="#48A1A6"/>
<path transform="translate(579,326)" d="m0 0 5 1v3l-14 1v-3z" fill="#E8F3F0"/>
<path transform="translate(1770,64)" d="m0 0 4 2-4 1-1 15h-1l-1-12-3-1v-2z" fill="#C67645"/>
<path transform="translate(1796,560)" d="m0 0h2l-1 6-5 10h-2l3-12h2z" fill="#528F80"/>
<path transform="translate(483,552)" d="m0 0h8l2 5-7-3-2 6-2-1v-6z" fill="#E3EEEB"/>
<path transform="translate(361,599)" d="m0 0h3l1 5v7l-5 1 1-5z" fill="#DEEBE7"/>
<path transform="translate(829,599)" d="m0 0h6l2 3v6l-6-1 2-6h-4z" fill="#E0EDE8"/>
<path transform="translate(891,552)" d="m0 0 3 1 1 2v13h-1l-1-6-2-4v-3l-4-1h4z" fill="#DFECE8"/>
<path transform="translate(1573,298)" d="m0 0h2v7l-3 6-4 3 1-5z" fill="#53ADB6"/>
<path transform="translate(1750,69)" d="m0 0 4 1 2 12h-4z" fill="#F6F8F1"/>
<path transform="translate(1502,66)" d="m0 0h2v16h-3v-15z" fill="#ECF6F5"/>
<path transform="translate(522,608)" d="m0 0 1 4-4 3-7-1 1-4 5 1z" fill="#EAF3F0"/>
<path transform="translate(765,601)" d="m0 0 5 1v6l-3 4-4-2v-2l5-1v-2l-4-1z" fill="#4EA4A6"/>
<path transform="translate(433,599)" d="m0 0h3l-1 6-3 8-1-3-3-1h2l2-9z" fill="#E0EDEA"/>
<path transform="translate(679,551)" d="m0 0 6 2 2 5-4-2-4-1-3 3-2-1 2-4z" fill="#E2EEEA"/>
<path transform="translate(1565,267)" d="m0 0h3l5 9-1 4-3-3-3-6z" fill="#51ACB6"/>
<path transform="translate(984,602)" d="m0 0h4v9l-4 1-1-2 1-4-1-3z" fill="#4AA3A9"/>
<path transform="translate(678,595)" d="m0 0 5 1v6l-2 2-1-2-1 6h-1z" fill="#DFECE8"/>
<path transform="translate(427,552)" d="m0 0 3 1-3 6v5h-3l-1-7 2-4z" fill="#E5F0ED"/>
<path transform="translate(345,552)" d="m0 0h8l1 4-2 1v-2l-5 1-1 4h-2v-7z" fill="#E2EDE9"/>
<path transform="translate(284,76)" d="m0 0h4v4h2l1 4h-6l-1-1z" fill="#E2973E"/>
<path transform="translate(1402,72)" d="m0 0 3 1 1 6-4 2-2-3 1-5z" fill="#48A4AF"/>
<path transform="translate(1712,68)" d="m0 0h1v14l-5-5 2-5h2z" fill="#C47349"/>
<path transform="translate(280,604)" d="m0 0h1l1 7 5 1-1 3-5-1-3-4 1-4z" fill="#F1F7F4"/>
<path transform="translate(937,557)" d="m0 0 2 2 1 5 2 1v3l-6-1v-9z" fill="#F2F7F5"/>
<path transform="translate(759,552)" d="m0 0h8l2 3h-2v6h-1l-1-6h-5l-1 4h-1z" fill="#E3EEE9"/>
<path transform="translate(249,72)" d="m0 0h2l1 4-2 7-3-2v-6z" fill="#44A0A8"/>
<path transform="translate(1389,72)" d="m0 0 3 1v6l-2 2h-3v-7z" fill="#439FA7"/>
<path transform="translate(260,859)" d="m0 0h7l3 1v5l-7-1v-2l-4-2z" fill="#69B7B2"/>
<path transform="translate(1305,733)" d="m0 0h6v3h-2v3l-3-1-3 3v-3z" fill="#69B7B2"/>
<path transform="translate(761,608)" d="m0 0 4 3 7-1-2 4h-8l-1-1z" fill="#E9F4F1"/>
<path transform="translate(274,552)" d="m0 0 7 1 2 2v5l-3-1-3-4-4-1z" fill="#E2EEEA"/>
<path transform="translate(687,607)" d="m0 0h3l2 4 3 1v2l2 1h-6l-4-4z" fill="#E9F2EF"/>
<path transform="translate(643,598)" d="m0 0 3 1-2 2-2 1-1 5-3 4-1-5 3-7z" fill="#E0ECE8"/>
<path transform="translate(310,599)" d="m0 0h8l3 4-1 3-2 3-2-7-5-1-2 1z" fill="#E0EDE9"/>
<path transform="translate(277,554)" d="m0 0 3 3-1 4v-2h-2l-1 3h-3l1-6z" fill="#71B6B7"/>
<path transform="translate(1237,76)" d="m0 0 1 2-3 5-4 1-3-2-1-3h3l5-1z" fill="#E5F1EE"/>
<path transform="translate(1169,71)" d="m0 0 5 1v8l-1 2h-2l-1-8-2-2z" fill="#FAFCFB"/>
<path transform="translate(306,70)" d="m0 0 4 1v6l-2 3v4h-2v-8l2-1 1-3h-12v-1z" fill="#338588"/>
<path transform="translate(354,864)" d="m0 0 9 2v2h-13l-1-2z" fill="#69B7B2"/>
<path transform="translate(1526,716)" d="m0 0h8v3l-5 2-6-3z" fill="#69B7B2"/>
<path transform="translate(1472,709)" d="m0 0 4 2-1 5-7-2 2-4z" fill="#68B6B2"/>
<path transform="translate(558,652)" d="m0 0 2 2v5l-5 3h-3l1-3 3-2z" fill="#E6F1EE"/>
<path transform="translate(610,607)" d="m0 0h2l-1 6-3 2h-6v-2l6-3z" fill="#EFF6F3"/>
<path transform="translate(586,608)" d="m0 0 1 3-4 4-7-1 1-3 7-1z" fill="#EBF3F0"/>
<path transform="translate(326,602)" d="m0 0h2l2 9 1 3-5-1z" fill="#F5F9F7"/>
<path transform="translate(767,555)" d="m0 0h2v12h-7l4-4z" fill="#EEF7F5"/>
<path transform="translate(320,552)" d="m0 0 2 1 1 13-3 1z" fill="#EBF4F2"/>
<path transform="translate(704,552)" d="m0 0 5 1 2 2v5l-4 1v-3l-1-3-3-2z" fill="#DEEBE6"/>
<path transform="translate(1731,77)" d="m0 0 3 1 1 2 5-1-1 4-1 1h-5l-2-2z" fill="#F9F6E5"/>
<path transform="translate(1734,72)" d="m0 0 4 1v6l-4 1-1-7z" fill="#B56537"/>
<path transform="translate(1291,73)" d="m0 0 4 1-1 7-4-1v-6z" fill="#419BA0"/>
<path transform="translate(1134,72)" d="m0 0 3 2v5l-4 2-1-1v-6z" fill="#439CA0"/>
<path transform="translate(567,649)" d="m0 0h1l1 8 1 4-2 1-3-2v-6z" fill="#E7F1EE"/>
<path transform="translate(459,648)" d="m0 0 5 1v5l-5 1-1-6z" fill="#93C6C7"/>
<path transform="translate(578,648)" d="m0 0 4 1 1 5-4 1-3-1 1-4z" fill="#93C5C3"/>
<path transform="translate(577,645)" d="m0 0h5l4 5-1 5-2-1-2-5z" fill="#E1EDE9"/>
<path transform="translate(456,646)" d="m0 0h9v2l-6-1v7l-4-1v-6z" fill="#E0EDE9"/>
<path transform="translate(560,609)" d="m0 0 4 2 7-1-2 4-5 1-4-2z" fill="#ECF3F0"/>
<path transform="translate(450,552)" d="m0 0 2 1v3l-3 7h-2v-6z" fill="#E3EFEC"/>
<path transform="translate(1159,73)" d="m0 0 3 1-1 9h-3v-9z" fill="#E7F2EF"/>
<path transform="translate(232,603)" d="m0 0 2 3-1 4v4l-4-1v-8h2z" fill="#EAF3F0"/>
<path transform="translate(1760,600)" d="m0 0 1 3-7 4-5 2-1-3 7-3z" fill="#B2A34A"/>
<path transform="translate(982,599)" d="m0 0h6l-1 3-3 2 1 4h-4v-8z" fill="#D7E6E0"/>
<path transform="translate(533,322)" d="m0 0h1v9l-1 4-2-1-1-9z" fill="#3A9294"/>
<path transform="translate(528,312)" d="m0 0h3v4l2 1-5 1-1 6h-2l2-10z" fill="#DCEBE7"/>
<path transform="translate(1147,72)" d="m0 0h2v10l-3 1-1-8z" fill="#34797F"/>
<path transform="translate(1542,73)" d="m0 0h4l1 5-2 3-3-1z" fill="#3E979B"/>
<path transform="translate(1776,67)" d="m0 0h6l-4 4-1 8-3-4 1-7z" fill="#D38243"/>
<path transform="translate(1373,66)" d="m0 0 5 1 1 6-2 2-1-3-3-1z" fill="#F7FAF8"/>
<path transform="translate(794,609)" d="m0 0 3 2h7v3l-7 1-3-2z" fill="#EDF5F2"/>
<path transform="translate(490,601)" d="m0 0 3 1-4 5 2 2h2l-1 3-4-1-1-8z" fill="#449BA0"/>
<path transform="translate(288,604)" d="m0 0 3 3v3l-3 2-6-1v-2h5z" fill="#479FA3"/>
<path transform="translate(847,601)" d="m0 0h1l1 5 2 2-1 6h-3z" fill="#EAF5F3"/>
<path transform="translate(493,602)" d="m0 0h1v9l-1-2-3 1-2-4z" fill="#9CD0D2"/>
<path transform="translate(924,601)" d="m0 0 4 1v7l-3 3h-2l1-3h2l1-4h-4z" fill="#49A3AA"/>
<path transform="translate(659,563)" d="m0 0 8 1 3-1-1 4-6 1-4-3z" fill="#EDF4F1"/>
<path transform="translate(1539,72)" d="m0 0 1 3h2l1 8-4-2-1-7z" fill="#E9F3F1"/>
<path transform="translate(1154,72)" d="m0 0 4 2-1 8h-3z" fill="#3B939A"/>
<path transform="translate(440,610)" d="m0 0 5 1 5-1-1 4h-9z" fill="#EAF2EF"/>
<path transform="translate(579,598)" d="m0 0 6 1 2 3v3l-3-1v-2l-6-1-3 2 2-4z" fill="#DDEBE7"/>
<path transform="translate(231,565)" d="m0 0h11v2l-2 1h-7l-4-2z" fill="#DBE9E4"/>
<path transform="translate(580,554)" d="m0 0h1l2 9 2 4-3 1-2-1z" fill="#EFF6F4"/>
<path transform="translate(308,647)" d="m0 0 2 3 1 11h-3z" fill="#EEF7F6"/>
<path transform="translate(800,607)" d="m0 0 4 1-1 3-6 1-1-4z" fill="#449FA7"/>
<path transform="translate(449,562)" d="m0 0 9 4-1 2h-6l-3-3z" fill="#F0F6F4"/>
<path transform="translate(273,554)" d="m0 0 2 2-3 9-2-2v-6z" fill="#E8F3F0"/>
<path transform="translate(1571,70)" d="m0 0h2v13l-3-1z" fill="#FAFCFB"/>
<path transform="translate(391,645)" d="m0 0h5l-3 2 3 2-5 2-2 1-2-2 2-4z" fill="#DFECE8"/>
<path transform="translate(319,605)" d="m0 0 2 1v6l-2 2h-6l3-3h2z" fill="#F1F8F7"/>
<path transform="translate(252,601)" d="m0 0 2 1-1 1 2 1-1 4-4 2-1-3 2-5z" fill="#7CBDBF"/>
<path transform="translate(564,601)" d="m0 0 4 1v2h-2l-1 3 2 2-5 1 1-8z" fill="#51ABB3"/>
<path transform="translate(609,600)" d="m0 0 4 2v7l-1-2h-2l-1 2z" fill="#E1EDE9"/>
<path transform="translate(281,599)" d="m0 0h4v2l2 1-4 1-2 3-3 1 2-7z" fill="#D6E9E5"/>
<path transform="translate(639,556)" d="m0 0h1v11l-4-1 2-9z" fill="#DCEAE6"/>
<path transform="translate(920,546)" d="m0 0h4v9l-3-1z" fill="#E5F1EE"/>
<path transform="translate(1761,71)" d="m0 0 3 3v7l-3 1-1-10z" fill="#B96E3F"/>
<path transform="translate(1748,72)" d="m0 0 3 1v9h-3z" fill="#AF6031"/>
<path transform="translate(1745,71)" d="m0 0h1v11h-3v-8z" fill="#FAFDFC"/>
<path transform="translate(317,652)" d="m0 0 2 3 3 4v2h-5l-1-5z" fill="#EFF5F2"/>
<path transform="translate(392,600)" d="m0 0 2 3-1 4h2l1-3h3l-1 4h-7z" fill="#D4E4DE"/>
<path transform="translate(644,599)" d="m0 0 6 1 1 1v5l-2 1-3-5-3-2z" fill="#F4F8F6"/>
<path transform="translate(884,562)" d="m0 0 2 2h4l2-2v5l-7 1z" fill="#C9DCD4"/>
<path transform="translate(1471,549)" d="m0 0 6 5 8 3-4 1-7-3-3-4z" fill="#C47349"/>
<path transform="translate(440,546)" d="m0 0h3v10l-2 2z" fill="#E6F2EF"/>
<path transform="translate(1269,71)" d="m0 0 2 2-1 9-5 1 2-2z" fill="#E8F3F0"/>
<path transform="translate(279,645)" d="m0 0h5l-4 1 1 3-3 4-3-2 2-5z" fill="#D9E8E3"/>
<path transform="translate(250,599)" d="m0 0 2 1-2 7-1-2h-2v5h-1v-6l2-4z" fill="#DCEAE6"/>
<path transform="translate(686,561)" d="m0 0 1 2-2 4-7 1-1-2 8-4z" fill="#E9F1EE"/>
<path transform="translate(418,562)" d="m0 0h2l-1 5-7 1-1-2 6-3z" fill="#F4F9F7"/>
<path transform="translate(928,556)" d="m0 0 2 4v3h2l-1 4-3 1z" fill="#E8F3F0"/>
<path transform="translate(1584,330)" d="m0 0 6 2v1h-14l1-2z" fill="#AF6031"/>
<path transform="translate(226,76)" d="m0 0h2l2 9-5-1z" fill="#FAFCFB"/>
<path transform="translate(1426,74)" d="m0 0h2l2 9-2 1-2-1z" fill="#F2F9F8"/>
<path transform="translate(1782,72)" d="m0 0h2l1 7-3 2-1-1v-7z" fill="#BB6C3A"/>
<path transform="translate(277,651)" d="m0 0h1l2 7-4 2-1-2v-6z" fill="#EDF5F3"/>
<path transform="translate(455,653)" d="m0 0 7 2 1-2-1 4-3 2-3-2v-2l-2-1z" fill="#4CA9B4"/>
<path transform="translate(422,639)" d="m0 0 3 1v5h-2l-1 7h-1v-12z" fill="#D8E7E2"/>
<path transform="translate(945,563)" d="m0 0 4 2-1 3h-6l-1-4z" fill="#A0CFCB"/>
<path transform="translate(599,551)" d="m0 0 6 1 2 3-1 3-4-3-3-1z" fill="#EAF2EF"/>
<path transform="translate(1507,300)" d="m0 0h2l-1 4h-5l-2 1-3-2z" fill="#4CAAB7"/>
<path transform="translate(1592,72)" d="m0 0 2 1v8h-3v-8z" fill="#489EA4"/>
<path transform="translate(298,73)" d="m0 0h4l1 3v7l-3-3v-5h-2z" fill="#B7683B"/>
<path transform="translate(1591,70)" d="m0 0 5 1-1 3-3-1-4 1-1 3 1-5z" fill="#F3F8F6"/>
<path transform="translate(1231,65)" d="m0 0 6 1 1 5-4-1-1-2-3-2z" fill="#F1F7F5"/>
</svg>